<svg xmlns="http://www.w3.org/2000/svg" width="60" height="60" viewBox="0 0 60 60">
  <title>Asset 2</title>
  <g id="Layer_2" data-name="Layer 2">
    <g id="Layer_1-2" data-name="Layer 1">
      <g>
        <circle cx="30" cy="30" r="30" fill="#6c9b00"/>
        <path d="M8.786,51.214A30,30,0,0,1,51.214,8.786Z" fill="#fff" opacity="0.2" style="isolation: isolate"/>
        <path d="M31.743,43.6v4.45H28.749V43.724A16.738,16.738,0,0,1,21,41.837V36.156a11.968,11.968,0,0,0,3.548,1.784,16.317,16.317,0,0,0,4.2.943V31.419q-4.8-1.784-6.553-3.866a7.613,7.613,0,0,1-1.753-5.076,7.455,7.455,0,0,1,2.276-5.486,9.566,9.566,0,0,1,6.029-2.635V10.542h2.994v3.732a15.179,15.179,0,0,1,6.46,1.395v5.537a15.5,15.5,0,0,0-6.46-2.133v7.772a16.467,16.467,0,0,1,6.439,3.7,7.1,7.1,0,0,1,1.948,5.035,7.246,7.246,0,0,1-2.174,5.486A10.378,10.378,0,0,1,31.743,43.6ZM28.749,25.656v-6.5q-2.851.513-2.851,2.974Q25.9,24.241,28.749,25.656Zm2.994,6.932V38.8q2.933-.451,2.933-2.933Q34.676,33.859,31.743,32.588Z" fill="#fff"/>
      </g>
    </g>
  </g>
</svg>
